<?xml version="1.0" encoding="UTF-8"?>
<svg id="_1__x28__x29_" xmlns="http://www.w3.org/2000/svg" version="1.1" viewBox="0 0 806.7 778.9">
  <!-- Generator: Adobe Illustrator 30.1.0, SVG Export Plug-In . SVG Version: 2.1.1 Build 136)  -->
  <defs>
    <style>
      .st0 {
        fill: #0698ea;
      }

      .st0, .st1, .st2, .st3 {
        stroke-linecap: round;
        stroke-linejoin: round;
      }

      .st0, .st1, .st3 {
        stroke: #4f2a12;
        stroke-width: 4px;
      }

      .st1 {
        fill: #0a84ff;
      }

      .st2 {
        fill: none;
        stroke: #4e2b15;
        stroke-width: 7px;
      }

      .st3, .st4 {
        fill: #075a9e;
      }
    </style>
  </defs>
  <path class="st1" d="M564.3,300.5c11.7,10.4,26.1,17.3,41,21.3,17.8,4.8,36.4,5.4,54.8,0,15.3-4.6,30.4-13.4,38.2-26.6,2.6-4.4,4.4-9.3,5.4-14.4.3,0,.9-4.3-10.3,54.2-1.8,9-6.7,17.6-13.2,24.3-8.7,8.9-20.2,14.5-32.2,17.7-29.2,7.8-63.8,1.5-88.7-17.1-10-7.4-18.6-16.9-23.3-28.4-3.6-8.6-5-18.4-3.2-27.4,3.5-18.3,7-36.6,10.5-54.9h.2c-3.6,20.1,5.5,37.8,20.8,51.3Z"/>
  <path class="st1" d="M540.9,117.9c2.6-4.4,4.4-9.3,5.4-14.4.3,0,.9-4.2-10.3,54.3-1.8,9-6.7,17.6-13.2,24.3-8.7,8.9-20.2,14.5-32.2,17.7-29.2,7.8-63.8,1.5-88.7-17.1-10-7.4-18.6-16.9-23.3-28.4-3.6-8.6-5-18.4-3.2-27.4,3.5-18.3,7-36.6,10.5-54.9h.2c-3.6,20.1,5.5,37.8,20.8,51.3,11.7,10.4,26.1,17.3,41,21.3,17.8,4.8,36.4,5.4,54.8,0,15.3-4.6,30.4-13.4,38.2-26.6Z"/>
  <path class="st1" d="M478.5,392.7c2.6-4.4,4.4-9.3,5.4-14.4h.1c-3.5,18.1-6.9,36.2-10.4,54.2-1.8,9.1-6.7,17.6-13.2,24.3-8.7,8.9-20.2,14.5-32.2,17.7-30.2,8-64.6.8-88.7-17.1-10-7.4-18.6-16.9-23.3-28.4-3.6-8.6-5-18.4-3.2-27.4,11.4-59.1,10.4-54.9,10.7-54.8-3.6,20.1,5.5,37.7,20.9,51.3,11.7,10.3,26.1,17.3,41,21.2,17.8,4.8,36.4,5.4,54.8,0,15.3-4.6,30.4-13.4,38.2-26.6Z"/>
  <path class="st1" d="M321,215.5c2.6-4.4,4.4-9.3,5.4-14.4h.1c-3.5,18.1-6.9,36.2-10.4,54.2-1.8,9.1-6.7,17.6-13.2,24.3-8.7,8.9-20.2,14.5-32.2,17.7-29.9,7.9-64.3,1.1-88.7-17.1-10-7.4-18.6-16.9-23.3-28.4-3.6-8.6-5-18.4-3.2-27.4,11.4-59.1,10.4-54.9,10.7-54.8-3.6,20,5.4,37.6,20.9,51.3,11.7,10.3,26.1,17.3,41,21.2,17.8,4.8,36.4,5.4,54.8,0,15.3-4.6,30.4-13.4,38.2-26.6Z"/>
  <path class="st4" d="M269.9,297.6l11.5-55c-17.9,5-36,4.3-53.3-.4-14.9-4-29.3-10.9-41-21.2-15.4-13.6-24.4-31.3-20.9-51.3-.2,0,.7-4.2-10.7,54.8-1.7,9.1-.3,18.8,3.2,27.4,4.8,11.5,13.3,20.9,23.3,28.4,24.1,17.9,58.2,24.8,87.9,17.3Z"/>
  <path class="st4" d="M426.5,474.8l11.5-55c-17.9,5-36,4.3-53.3-.4-14.9-4-29.3-10.9-41-21.2-15.4-13.6-24.4-31.3-20.9-51.3-.3,0,.7-4.2-10.7,54.8-1.7,9.1-.3,18.8,3.2,27.4,4.8,11.5,13.3,20.9,23.3,28.4,24.1,17.9,58.2,24.8,87.9,17.3Z"/>
  <path class="st4" d="M489.8,200l11.5-55c-17.9,5-36,4.3-53.3-.4-14.9-4-29.3-10.9-41-21.2-15.4-13.6-24.4-31.3-20.9-51.3-.3,0,.7-4.2-10.7,54.8-1.7,9.1-.3,18.8,3.2,27.4,4.8,11.5,13.3,20.9,23.3,28.4,24.1,17.9,58.2,24.8,87.9,17.3Z"/>
  <path class="st4" d="M646.4,377.2l11.5-55c-17.9,5-36,4.3-53.3-.4-14.9-4-29.3-10.9-41-21.2-15.4-13.6-24.4-31.3-20.9-51.3-.2,0,.7-4.2-10.7,54.8-1.7,9.1-.3,18.8,3.2,27.4,4.8,11.5,13.3,20.9,23.3,28.4,24.1,17.9,58.2,24.8,87.9,17.3Z"/>
  <polygon class="st1" points="801.8 359.3 759.6 578.8 319.8 774 362 554.5 801.8 359.3"/>
  <path class="st1" d="M703.1,259.5c3.2,12.4,1.1,25.6-4.8,35.6-7.8,13.2-22.9,22-38.2,26.6-18.4,5.5-37,4.8-54.8,0-14.9-4-29.3-10.9-41-21.3-9.4-8.3-17.1-18.7-20.1-30.7-3.2-12.8-.9-26,4.8-35.6,7.8-13.2,22.9-22,38.2-26.6,18.4-5.5,37-4.8,54.8,0,18.2,4.9,35.2,14,47.7,27.8,6.3,7,11.2,15.1,13.5,24.1Z"/>
  <path class="st1" d="M484,378.4h-.1c3.9-20.2-5.1-38.2-20.7-51.9-11.7-10.4-26.1-17.3-41-21.3-17.8-4.8-36.4-5.4-54.8,0-15.3,4.6-30.4,13.4-38.2,26.6-2.7,4.6-4.5,9.7-5.5,15.1-.3,0,.7-4.1-10.7,54.8-1.7,9.1-.3,18.8,3.2,27.4,13.8,33.4,65,57.9,112,45.4,12-3.2,23.5-8.8,32.2-17.7,6.5-6.7,11.4-15.2,13.2-24.3,3.5-18.1,6.9-36.2,10.4-54.2ZM533.4,57.2l268.4,302.1-439.8,195.2L47.2,200.1l143.2-63.5c-12.8,7.8-21.5,18.2-24.2,33.1-.3,0,.7-4.1-10.7,54.8-1.7,9.1-.3,18.8,3.2,27.4,4.8,11.5,13.3,20.9,23.3,28.4,24.3,18.1,58.8,25,88.7,17.1,12-3.2,23.5-8.8,32.2-17.7,6.5-6.7,11.4-15.2,13.2-24.3,3.5-18.1,6.9-36.2,10.4-54.2h-.1c3.3-17-2.5-32.5-14.1-45.4-12.5-14-29.8-23-47.7-27.8-18.6-5-37.3-5.3-55.6.3l201.2-89.3c-13,7.9-21.5,18.4-24.1,33h-.2c-3.5,18.3-7,36.6-10.5,54.9-1.8,9-.3,18.8,3.2,27.4,4.8,11.5,13.3,21,23.3,28.4,25,18.6,59.5,24.8,88.7,17.1,12-3.2,23.5-8.8,32.2-17.7,6.5-6.7,11.4-15.2,13.2-24.3,11.2-58.4,10.5-54.2,10.3-54.3,3.3-16.9-2.5-32.5-14.1-45.3l1.1-1ZM683,228.8c-11.7-10.3-26.1-17.3-41-21.2-17.8-4.8-36.4-5.4-54.8,0-15.3,4.6-30.4,13.4-38.2,26.6-2.7,4.6-4.5,9.7-5.5,15h-.2c-3.5,18.3-7,36.6-10.5,54.9-1.8,9-.3,18.8,3.2,27.4,4.8,11.5,13.3,21,23.3,28.4,25,18.6,59.5,24.8,88.7,17.1,12-3.2,23.5-8.8,32.2-17.7,6.5-6.7,11.4-15.2,13.2-24.3,11.2-58.3,10.5-54.2,10.3-54.2,4-20.5-5.3-38.2-20.7-51.9Z"/>
  <path class="st1" d="M545.7,82.3c3.2,12.6,1,25.9-4.8,35.6-7.8,13.2-22.9,22-38.2,26.6-18.4,5.5-37,4.8-54.8,0-14.9-4-29.3-10.9-41-21.3-9.4-8.3-17.1-18.7-20.1-30.7-3.2-12.8-.9-26,4.8-35.6,4.4-7.3,11-13.3,18.6-18,21.7-9.6,18.3-8.2,19.6-8.6,18.3-5.8,37-4.8,54.8,0,18.1,4.8,35.2,14,47.7,27.8,6.3,7,11.2,15.1,13.5,24.1Z"/>
  <path class="st0" d="M486.9,4.9l46.4,52.3-1.1,1c-12.4-13.8-29.5-23-47.7-27.8-17.8-4.8-36.5-5.7-54.8,0-.3,0-.5.1-.8.3l58-25.7Z"/>
  <path class="st1" d="M483.2,357.1c3.2,12.4,1.1,25.6-4.8,35.6-7.8,13.2-22.9,22-38.2,26.6-18.4,5.5-37,4.8-54.8,0-14.9-4-29.3-10.9-41-21.2-9.4-8.3-17.1-18.7-20.1-30.7-3.2-12.6-1-25.8,4.8-35.6,7.8-13.2,22.9-22,38.2-26.6,18.4-5.5,37-4.8,54.8,0,18,4.8,35.2,13.9,47.7,27.8,6.3,7,11.2,15.2,13.5,24.1Z"/>
  <path class="st0" d="M429,30.7l-18.8,8.3c5.8-3.6,12.3-6.3,18.8-8.3Z"/>
  <polygon class="st3" points="47.2 200.1 362 554.5 319.8 774 4.9 419.6 47.2 200.1"/>
  <path class="st1" d="M325.8,179.9c3.2,12.4,1.1,25.6-4.8,35.6-7.8,13.2-22.9,22-38.2,26.6-18.4,5.5-37,4.8-54.8,0-14.9-4-29.3-10.9-41-21.2-9.4-8.3-17.1-18.7-20.1-30.7-3.2-12.6-1-25.8,4.8-35.6,4.4-7.3,11-13.3,18.7-18l18.7-8.3c18.3-5.6,37.1-5.3,55.6-.3,18,4.8,35.2,13.9,47.7,27.8,6.3,7,11.2,15.1,13.5,24.1Z"/>
  <path class="st0" d="M209,128.3l-18.7,8.3c5.8-3.5,12.2-6.3,18.7-8.3Z"/>
  <path class="st2" d="M803.2,359.2s0,0,0-.1c0,0,0-.2,0-.2,0,0,0,0,0-.1,0,0,0-.1-.1-.2,0,0,0,0,0-.1,0,0,0,0,0,0L534.4,56.2,488,4c-.4-.5-1.1-.6-1.7-.4l-57.9,25.7c-6.9,2.1-13.2,4.9-18.9,8.4l-201,89.2c-6.9,2.2-13.3,5-18.8,8.4l-143.1,63.5s0,0,0,0c0,0,0,0-.1,0,0,0-.1,0-.2.2,0,0,0,0,0,0,0,0-.1.1-.2.2,0,0,0,0,0,0,0,.1,0,.2-.1.3,0,0,0,0,0,0,0,0,0,0,0,0L3.5,419.3c0,.4,0,.9.3,1.2l314.8,354.4s0,0,.1.1c0,0,0,0,0,0,0,0,0,0,0,0,.1,0,.2.2.4.2,0,0,0,0,0,0,.1,0,.3,0,.4,0s.2,0,.3,0c0,0,0,0,0,0,0,0,0,0,0,0,0,0,0,0,.1,0l439.8-195.2c.4-.2.7-.6.8-1l42.2-219.5s0,0,0,0c0,0,0-.2,0-.3Z"/>
</svg>